<?xml version="1.0" encoding="utf-8"?>
<!-- Generator: Adobe Illustrator 22.0.1, SVG Export Plug-In . SVG Version: 6.00 Build 0)  -->
<svg version="1.1" id="Layer_1" xmlns="http://www.w3.org/2000/svg" xmlns:xlink="http://www.w3.org/1999/xlink" x="0px" y="0px"
	 width="1000px" height="271.8656616px" viewBox="0 0 1000 271.8656616" enable-background="new 0 0 1000 271.8656616"
	 xml:space="preserve">
<g>
	<path fill="#FF0000" d="M312.3562927,34.9153328c-3.693634-13.7291832-14.4957886-24.5313339-28.2249451-28.2249718
		C259.2515564,0,159.5233307,0,159.5233307,0S59.7254257,0,34.8456421,6.690361
		C21.116457,10.3839998,10.3143091,21.1861496,6.6903625,34.9153328C0,59.7254257,0,111.6454315,0,111.6454315
		s0,51.9199829,6.6903625,76.7997742c3.6936374,13.7292023,14.4957848,24.5313416,28.2249622,28.2249756
		c24.8797874,6.6903687,124.6080017,6.6903687,124.6080017,6.6903687s99.7282257,0,124.6079865-6.6903687
		c13.7291565-3.6936493,24.531311-14.4958038,28.2249756-28.2249756c6.6903381-24.879776,6.6903381-76.7997665,6.6903381-76.7997665
		S318.9775391,59.7254333,312.3562927,34.9153328z"/>
	<path fill="#FFFFFF" d="M127.6047287,159.5233307l82.8629227-47.8779068l-82.862915-47.8082275L127.6047287,159.5233307z"/>
	<path fill="#282828" d="M465.0498962,112.2726517v94.9195175h-18.7469788l-4.3208313-23.7647247
		c-4.1117859,17.5621948-15.0533447,26.2736053-33.103363,26.2736053c-29.409729,0-39.7240601-24.3919678-39.7240601-73.4546051
		V88.5776138c0-51.7806206,9.3386536-75.754425,50.8746643-75.754425c36.518219,0,46.344696,23.9737968,42.4419861,67.5308456
		l-28.2946777,1.8119659c0.6968689-36.9363823-4.3208313-45.647789-15.2623901-45.647789
		c-12.3353577,0-17.1440735,11.4293709-17.1440735,50.4564896V141.05513c0,32.6155243,4.1117859,44.950882,16.8652954,44.950882
		c13.0322876,0,18.4682007-9.1295471,18.4682007-33.1033478v-15.9593201h-17.5621643v-24.6707153
		C419.5415039,112.2726288,465.0498962,112.2726288,465.0498962,112.2726517z"/>
	<path fill="#282828" d="M565.2659302,113.8755417v93.3166275h-23.9737549l-3.2058105-17.1440582h-0.487793
		c-4.5299683,12.3353577-12.75354,20.0710754-26.6917725,20.0710754c-17.3531494,0-31.0126343-11.4293671-31.0126343-34.218399
		c0-25.2979279,15.0533142-42.651062,54.9864502-53.3835144V112.48172c0-19.374176-2.0211182-26.2735977-10.9415894-26.2735977
		c-10.0355225,0-13.241333,7.3175659-13.4504089,28.9915619l-27.5977478-2.2998199
		c-2.7179871-34.009346,10.9414978-48.3657455,42.4419556-48.3657455
		C554.7425537,64.6032104,565.2659302,81.260025,565.2659302,113.8755417z M534.8805542,179.5944214v-40.6300201
		c-16.4471436,5.2268524-23.4859619,16.1683807-23.4859619,31.5004578c0,11.638443,3.2058105,17.7712708,10.7324219,17.7712708
		C527.1447754,188.306366,531.8837891,184.4031219,534.8805542,179.5944214z"/>
	<path fill="#282828" d="M726.6012573,101.540184v105.6519852H695.100769V103.8399963
		c0-11.4293747-2.9967041-17.1440582-9.826416-17.1440582c-5.5056763,0-10.5234375,3.2058029-13.9382935,9.1295547
		c0.2091064,1.8119888,0.2091064,3.6239548,0.2091064,5.7146912v105.6519852h-31.5004883V103.8399963
		c0-11.4293747-2.9967041-17.1440582-9.826416-17.1440582c-5.5056763,0-10.2446289,3.2058029-13.6595459,8.9204865v111.5757446
		h-31.5004272V67.321785h24.8797607l2.7179565,17.7712631h0.487793
		c7.1085205-13.4504242,18.4682007-20.7679977,31.9185791-20.7679977c13.241333,0,20.7680054,6.6206665,24.1828613,18.4681854
		c7.317627-12.1262817,18.2591553-18.4681854,30.8035889-18.4681854
		C719.2835693,64.3941422,726.6011963,78.0542297,726.6012573,101.540184z"/>
	<path fill="#282828" d="M746.6723022,31.5004597c0-15.0533142,5.5056152-19.3741798,17.144043-19.3741798
		c11.8475342,0,17.144104,5.0177755,17.144104,19.3741798c0,15.5411549-5.2268677,19.3741665-17.144104,19.3741665
		C752.1082153,50.9437218,746.6723022,47.0416031,746.6723022,31.5004597z M748.4842529,67.321785h30.1066895v139.8703918
		h-30.1066895V67.321785z"/>
	<path fill="#282828" d="M888.1456299,101.540184v105.6519852h-31.5005493V104.5369186
		c0-11.4293747-2.9967041-17.7712708-10.0355225-17.7712708c-5.5056152,0-10.2445679,3.2057953-13.6594238,8.9204788v111.5757446
		H801.449707V67.321785h24.8797607l2.7178955,17.7712631h0.6969604
		c6.8297119-13.2413406,17.7713013-20.7679977,31.0126343-20.7679977
		C880.1311035,64.3941422,888.1456299,78.0542297,888.1456299,101.540184z"/>
	<path fill="#282828" d="M996.515564,231.4447327c0,25.2979126-18.4682617,40.420929-50.456543,40.420929
		c-27.8067627,0-45.1599731-11.6384583-45.1599731-32.1973572c0-14.1473389,8.6417847-22.3709106,21.8830566-25.7857971
		c-9.6173096-3.6239319-16.656189-9.1295471-16.8652954-19.8620148
		c-0.2089233-10.5233612,6.1329346-19.374176,17.5621948-23.9738007
		c-12.1262207-6.8297424-18.9559937-21.2558594-18.9559937-47.9476013v-2.996727
		c0-38.1211319,13.0322876-54.2894974,42.0238037-54.2894974c12.1262817,0,21.4649658,2.7179565,28.0855713,8.9204788
		c2.9967651-12.5444298,8.9204712-22.3708992,21.4649048-23.4859505L1000,80.6327896
		c-6.8297119,0-12.5444336,2.0210571-16.656189,5.9237671c3.414856,8.2235718,5.0177612,18.9560318,5.0177612,32.4064484v2.996727
		c0,40.1421814-15.0532837,53.1744537-41.7451172,53.1744537c-4.3208008,0-8.4326782-0.2091064-12.1262817-1.1151123
		c-3.414856,2.2998199-4.8087158,5.2268524-4.8087158,8.2235718c0,18.6075745,66.8339233,1.2544556,66.8339233,49.2020416
		L996.515564,231.4447327z M937.4174194,217.7155609c-7.1085205,2.5088806-11.4293213,7.7357178-11.4293213,14.6351776
		c0,9.8264618,7.0388184,16.8652954,21.4648438,16.8652954c14.6351929,0,22.5799561-6.4116058,22.7891235-14.1473389
		C970.7297363,223.0121002,954.0737305,220.9213562,937.4174194,217.7155609z M934.6995239,123.4929504
		c0,25.0888672,3.414856,31.2913971,11.8474731,31.2913971c8.4326782,0,11.6384888-6.1328583,11.6384888-31.2913971v-4.8087006
		c0-25.2979202-2.7178955-32.1973572-11.6384888-32.1973572c-8.9204102,0-11.8474731,6.8297424-11.8474731,32.1973572V123.4929504z"
		/>
</g>
</svg>
